Coordinates
version=1
nRows=27
nColumns=33
inDegrees=yes

Units are S.I. units (second, meters, Newtons, ...)
Angles are in degrees.

endheader
time	ground_thorax_rot_x	ground_thorax_rot_y	ground_thorax_rot_z	ground_thorax_tx	ground_thorax_ty	ground_thorax_tz	clav_prot_r	clav_elev_r	scapula_abduction_r	scapula_elevation_r	scapula_upward_rot_r	scapula_winging_r	shoulder_elv_r	plane_of_elev_r	axial_rot_r	elbow_flexion_r	pro_sup_r	wrist_flex_r	wrist_dev_r	clav_prot_l	clav_elev_l	scapula_abduction_l	scapula_elevation_l	scapula_upward_rot_l	scapula_winging_l	shoulder_elv_l	plane_of_elev_l	axial_rot_l	elbow_flexion_l	pro_sup_l	wrist_flex_l	wrist_dev_l	
2.0900	-0.997293	1.972592	-0.252427	-0.153030	0.987199	-0.000921	-7.063231	-5.860367	-10.123880	3.192703	-3.550478	2.182223	41.807081	-26.934646	14.320115	77.602955	-1.201719	-7.954913	1.301804	-3.706123	-4.345974	4.185596	-4.736023	-6.735764	-1.771672	46.712264	-24.723102	-11.123920	79.698753	14.155399	11.078249	11.372400	
2.1000	-0.998511	1.998371	-0.068570	-0.153434	0.986952	-0.001000	-6.741700	-6.259693	-9.709840	3.079620	-4.164771	2.311372	41.877826	-25.256987	12.911077	75.914012	-0.775461	-9.773488	2.479767	-3.417696	-4.651555	3.642608	-4.500847	-6.841802	-1.720858	46.789449	-23.327608	-10.936547	77.973322	13.760153	12.234821	12.895332	
2.1100	-0.986858	2.019248	0.108118	-0.153847	0.986724	-0.001077	-6.416483	-6.678215	-9.271480	2.935571	-4.746338	2.431872	41.998858	-23.546113	11.563352	74.007565	-0.251584	-11.467711	3.739879	-3.121519	-4.985297	3.076210	-4.231859	-6.928463	-1.666705	46.822634	-21.925910	-10.724185	76.045842	13.386212	13.373600	14.269719	
2.1200	-0.971019	2.036929	0.301019	-0.154286	0.986475	-0.001143	-6.073588	-7.088577	-8.801083	2.794920	-5.316240	2.541188	42.158534	-21.805737	10.269633	71.902211	0.338246	-13.106889	5.091054	-2.810191	-5.315126	2.483977	-3.962973	-7.004850	-1.604557	46.820157	-20.512142	-10.498184	73.932121	13.014619	14.537866	15.565517	
2.1300	-0.946140	2.047596	0.479270	-0.154714	0.986259	-0.001199	-5.730682	-7.512049	-8.302682	2.613532	-5.816476	2.634417	42.347079	-20.081640	9.100037	69.595645	0.928736	-14.550575	6.415893	-2.497159	-5.665837	1.876447	-3.661297	-7.047770	-1.538076	46.767463	-19.110989	-10.248986	71.626403	12.674342	15.649241	16.675208	
2.1400	-0.918073	2.053505	0.654700	-0.155136	0.986059	-0.001238	-5.380797	-7.932731	-7.773421	2.409455	-6.254848	2.710459	42.553540	-18.388590	8.065710	67.112972	1.465837	-15.840223	7.671758	-2.179193	-6.019537	1.253814	-3.345429	-7.061416	-1.465362	46.673946	-17.724673	-9.987604	69.148665	12.351725	16.720810	17.645423	
2.1500	-0.884554	2.052795	0.817770	-0.155537	0.985886	-0.001264	-5.030313	-8.348629	-7.221357	2.182702	-6.626955	2.767922	42.782695	-16.727098	7.191960	64.460933	1.910712	-16.925613	8.818881	-1.862798	-6.374957	0.624513	-3.013643	-7.039293	-1.386034	46.525629	-16.353528	-9.697953	66.501702	12.038473	17.745791	18.435456	
2.1600	-0.850547	2.047564	0.964939	-0.155911	0.985765	-0.001270	-4.680974	-8.767285	-6.648723	1.922821	-6.925218	2.810443	43.017568	-15.124320	6.482882	61.665376	2.235539	-17.830029	9.807132	-1.546668	-6.738745	-0.013252	-2.660838	-6.983448	-1.303207	46.344216	-15.017264	-9.388515	63.715260	11.742926	18.701542	19.070971	
2.1700	-0.816437	2.039260	1.098713	-0.156249	0.985684	-0.001256	-4.336967	-9.173088	-6.070854	1.651770	-7.167393	2.839168	43.253993	-13.555861	5.914698	58.738410	2.445501	-18.568760	10.665891	-1.232945	-7.095946	-0.652074	-2.302895	-6.898973	-1.215240	46.122242	-13.703206	-9.042548	60.803512	11.446794	19.611884	19.556573	
2.1800	-0.784221	2.028704	1.223001	-0.156544	0.985653	-0.001214	-4.004523	-9.563185	-5.501698	1.374314	-7.359166	2.857717	43.476779	-12.025337	5.466330	55.705413	2.556570	-19.164076	11.408941	-0.921513	-7.445630	-1.289139	-1.944253	-6.794553	-1.124088	45.871301	-12.419861	-8.649761	57.794521	11.151003	20.472053	19.906909	
2.1900	-0.752035	2.017445	1.356028	-0.156811	0.985627	-0.001145	-3.681117	-9.905235	-4.956788	1.141085	-7.549274	2.865970	43.703911	-10.482669	5.110118	52.586025	2.607482	-19.644432	12.126957	-0.606868	-7.757660	-1.925285	-1.618844	-6.685010	-1.022020	45.582565	-11.145368	-8.198407	54.709635	10.832551	21.345036	20.135888	
2.2000	-0.721759	2.005683	1.476863	-0.157031	0.985669	-0.001041	-3.377151	-10.232353	-4.435787	0.903428	-7.696027	2.868543	43.911779	-8.988905	4.860952	49.423320	2.609149	-19.990277	12.760611	-0.290791	-8.064788	-2.563260	-1.295284	-6.567661	-0.916931	45.291322	-9.922525	-7.709871	51.603481	10.545608	22.151414	20.245150	
2.2100	-0.694201	1.994296	1.583789	-0.157213	0.985754	-0.000902	-3.092035	-10.527599	-3.941273	0.678599	-7.802540	2.862561	44.090967	-7.534120	4.707797	46.256424	2.579033	-20.231897	13.340422	0.027788	-8.350641	-3.201000	-0.990548	-6.446889	-0.805567	45.001901	-8.738689	-7.187906	48.514455	10.292287	22.899450	20.268059	
2.2200	-0.667611	1.981439	1.669338	-0.157342	0.985908	-0.000721	-2.834371	-10.800398	-3.477399	0.446485	-7.842100	2.848552	44.218736	-6.154407	4.652276	43.129582	2.522217	-20.368143	13.839830	0.344049	-8.626153	-3.831012	-0.695653	-6.325994	-0.692944	44.727544	-7.612440	-6.637485	45.492898	10.097614	23.542971	20.221950	
2.2300	-0.641321	1.966285	1.740771	-0.157430	0.986095	-0.000497	-2.603994	-11.027025	-3.050534	0.235639	-7.829747	2.822203	44.293954	-4.830498	4.694593	40.082572	2.439938	-20.403885	14.285800	0.659380	-8.871814	-4.451432	-0.431176	-6.211637	-0.573652	44.466835	-6.535628	-6.060221	42.575706	9.958432	24.099972	20.118865	
2.2400	-0.611927	1.950900	1.804128	-0.157463	0.986322	-0.000231	-2.412518	-11.204279	-2.676365	0.044398	-7.755021	2.784144	44.299579	-3.582568	4.834435	37.151197	2.325632	-20.327824	14.662752	0.970714	-9.090614	-5.054620	-0.198060	-6.113762	-0.450588	44.224001	-5.523620	-5.458483	39.816106	9.899229	24.541953	19.964302	
2.2500	-0.582894	1.938056	1.868311	-0.157448	0.986589	0.000074	-2.256946	-11.331466	-2.354689	-0.119502	-7.634856	2.736080	44.241071	-2.427018	5.059570	34.391580	2.186565	-20.163720	14.976680	1.274995	-9.281485	-5.634719	0.002262	-6.033813	-0.325323	44.006780	-4.597722	-4.865148	37.262174	9.921426	24.878466	19.778009	
2.2600	-0.549506	1.927333	1.940195	-0.157385	0.986857	0.000413	-2.145278	-11.386433	-2.106007	-0.228946	-7.485062	2.677167	44.121472	-1.334219	5.360272	31.820487	2.008841	-19.911240	15.254763	1.571062	-9.423886	-6.184873	0.147659	-5.980324	-0.193316	43.801286	-3.742569	-4.269038	34.945710	10.017440	25.137415	19.554536	
2.2700	-0.518593	1.917333	2.017254	-0.157292	0.987142	0.000780	-2.063077	-11.394276	-1.910308	-0.297617	-7.328616	2.614194	43.969697	-0.340696	5.710474	29.512072	1.822048	-19.624267	15.499972	1.854920	-9.530493	-6.701795	0.252417	-5.946878	-0.059961	43.631129	-2.998193	-3.733779	32.917091	10.180809	25.334731	19.327498	
2.2800	-0.488832	1.908543	2.077325	-0.157172	0.987452	0.001162	-2.012428	-11.370596	-1.764681	-0.346159	-7.151124	2.550330	43.790501	0.542649	6.093152	27.482844	1.634062	-19.323257	15.707752	2.121800	-9.610425	-7.179666	0.326161	-5.930878	0.070296	43.504852	-2.363313	-3.266586	31.208051	10.414188	25.458538	19.106531	
2.2900	-0.467491	1.901124	2.112501	-0.157010	0.987810	0.001542	-1.981330	-11.348280	-1.648303	-0.401947	-6.960451	2.493209	43.602198	1.253182	6.458955	25.820974	1.478531	-19.071053	15.864714	2.354474	-9.682427	-7.594207	0.390640	-5.921730	0.183194	43.435073	-1.873707	-2.913913	29.867340	10.686044	25.505485	18.926810	
2.3000	-0.441692	1.896548	2.112488	-0.156829	0.988131	0.001919	-1.993723	-11.275988	-1.595599	-0.431024	-6.723605	2.429208	43.369338	1.876325	6.835873	24.441287	1.310414	-18.804745	16.005187	2.559076	-9.718216	-7.950609	0.416111	-5.929256	0.290176	43.390035	-1.453607	-2.584327	28.850293	11.000028	25.472995	18.724669	
2.3100	-0.416266	1.895223	2.095005	-0.156629	0.988417	0.002277	-2.039278	-11.168802	-1.597521	-0.435113	-6.470322	2.364561	43.115958	2.378313	7.180990	23.391251	1.151287	-18.547821	16.121320	2.725250	-9.724902	-8.232599	0.410391	-5.950666	0.382643	43.366206	-1.128049	-2.294445	28.162444	11.315956	25.377461	18.501021	
2.3200	-0.387882	1.901288	2.066547	-0.156444	0.988638	0.002605	-2.123104	-11.011750	-1.666622	-0.397346	-6.207836	2.297463	42.845300	2.802413	7.493095	22.606796	0.989613	-18.262582	16.221482	2.859409	-9.693568	-8.449290	0.363608	-5.989982	0.466225	43.345428	-0.863234	-1.993912	27.752912	11.623825	25.233385	18.209608	
2.3300	-0.370501	1.914522	2.039142	-0.156257	0.988831	0.002887	-2.227401	-10.850566	-1.782922	-0.342744	-5.978684	2.244012	42.600322	3.082664	7.712830	22.166551	0.874366	-17.986183	16.268601	2.954108	-9.646180	-8.592040	0.298444	-6.040846	0.529893	43.349289	-0.724178	-1.728455	27.664880	11.893279	25.047960	17.847737	
2.3400	-0.361745	1.937186	2.007000	-0.156097	0.988970	0.003135	-2.364354	-10.671428	-1.962772	-0.266098	-5.764750	2.201281	42.361650	3.265228	7.853918	21.995412	0.801924	-17.667541	16.259559	3.026565	-9.579666	-8.689648	0.210740	-6.105749	0.584300	43.374406	-0.685118	-1.440537	27.848142	12.153313	24.807140	17.342317	
2.3500	-0.367386	1.974090	1.986971	-0.155953	0.989115	0.003346	-2.522912	-10.514103	-2.192452	-0.194220	-5.590881	2.182956	42.155521	3.276193	7.861365	22.158270	0.835598	-17.324869	16.145287	3.080460	-9.527619	-8.752513	0.132415	-6.181103	0.620603	43.439942	-0.818069	-1.165344	28.323467	12.404136	24.493951	16.651443	
